{"title":"Bringing Up Bates - s02e01 - All Together Again - HDTV 1080","uid":12043731,"size":1557947871,"categoryP":"video","categoryS":"tv_shows","magnet":"?xt=urn:btih:c2970504449fe5122f79ecfb2c1207c0c6231b2f&amp;dn=Bringing+Up+Bates+-+s02e01+-+All+Together+Again+-+HDTV+1080&amp;tr=udp%3A%2F%2Ftracker.openbittorrent.com%3A80&amp;tr=udp%3A%2F%2Fopen.demonii.com%3A1337&amp;tr=udp%3A%2F%2Ftracker.coppersurfer.tk%3A6969&amp;tr=udp%3A%2F%2Fexodus.desync.com%3A6969","seeders":0,"leechers":0,"uploader":null,"files":15,"time":1434837930,"description":"Gil and Kelly Jo Bates live in the picturesque hills of Tennessee, and life is never boring. That's because Gil and Kelly Jo are parents to 19 children who fill their life with joy and fulfill their belief that family is the key to happiness. This real-life series welcomes viewers into the Bates household.\n\nGeneral\nComplete name                            : Bringing Up Bates - s02e01 - All Together Again.mp4\nFormat                                   : MPEG-4\nFormat profile                           : Base Media / Version 2\nCodec ID                                 : mp42\nFile size                                : 1.13 GiB\nDuration                                 : 43mn 11s\nOverall bit rate mode                    : Variable\nOverall bit rate                         : 3 756 Kbps\nEncoded date                             : UTC 2015-06-06 15:03:39\nTagged date                              : UTC 2015-06-06 15:03:39\nÂ©TIM                                     : 00;00;00;00\nÂ©TSC                                     : 30000\nÂ©TSZ                                     : 1001\n\nVideo\nID                                       : 1\nFormat                                   : AVC\nFormat/Info                              : Advanced Video Codec\nFormat profile                           : &lt;a class=&quot;__cf_email__&quot; href=&quot;/cdn-cgi/l/email-protection&quot; data-cfemail=&quot;1459757d7a5458203a26&quot;&gt;[email&amp;#160;protected]&lt;/a&gt;&lt;script data-cfhash='f9e31' type=&quot;text/javascript&quot;&gt;\n/* &lt;![CDATA[ */!function(){try{var t=&quot;currentScript&quot;in document?document.currentScript:function(){for(var t=document.getElementsByTagName(&quot;script&quot;),e=t.length;e--;)if(t[e].getAttribute(&quot;data-cfhash&quot;))return t[e]}();if(t&amp;&amp;t.previousSibling){var e,r,n,i,c=t.previousSibling,a=c.getAttribute(&quot;data-cfemail&quot;);if(a){for(e=&quot;&quot;,r=parseInt(a.substr(0,2),16),n=2;a.length-n;n+=2)i=parseInt(a.substr(n,2),16)^r,e+=String.fromCharCode(i);e=document.createTextNode(e),c.parentNode.replaceChild(e,c)}t.parentNode.removeChild(t);}}catch(u){}}()/* ]]&gt; */&lt;/script&gt;\nFormat settings, CABAC                   : Yes\nFormat settings, ReFrames                : 3 frames\nCodec ID                                 : avc1\nCodec ID/Info                            : Advanced Video Coding\nDuration                                 : 43mn 11s\nSource duration                          : 43mn 14s\nBit rate                                 : 3 496 Kbps\nWidth                                    : 1 920 pixels\nHeight                                   : 1 080 pixels\nDisplay aspect ratio                     : 16:9\nFrame rate mode                          : Constant\nFrame rate                               : 29.970 fps\nStandard                                 : NTSC\nColor space                              : YUV\nChroma subsampling                       : 4:2:0\nBit depth                                : 8 bits\nScan type                                : Progressive\nBits/(Pixel*Frame)                       : 0.056\nStream size                              : 1.05 GiB (93%)\nSource stream size                       : 1.06 GiB (93%)\nLanguage                                 : English\nEncoded date                             : UTC 2015-06-06 15:03:39\nTagged date                              : UTC 2015-06-06 15:03:39\nColor range                              : Limited\nmdhd_Duration                            : 2591900\n\nAudio\nID                                       : 2\nFormat                                   : AAC\nFormat/Info                              : Advanced Audio Codec\nFormat profile                           : LC\nCodec ID                                 : 40\nDuration                                 : 43mn 11s\nSource duration                          : 43mn 14s\nBit rate mode                            : Variable\nBit rate                                 : 253 Kbps\nMaximum bit rate                         : 310 Kbps\nChannel(s)                               : 2 channels\nChannel positions                        : Front: L R\nSampling rate                            : 48.0 KHz\nCompression mode                         : Lossy\nStream size                              : 78.3 MiB (7%)\nSource stream size                       : 78.4 MiB (7%)\nLanguage                                 : English\nEncoded date                             : UTC 2015-06-06 15:03:39\nTagged date                              : UTC 2015-06-06 15:03:39","torrent":{"xt":"urn:btih:c2970504449fe5122f79ecfb2c1207c0c6231b2f","amp;dn":"Bringing+Up+Bates+-+s02e01+-+All+Together+Again+-+HDTV+1080","amp;tr":["udp%3A%2F%2Ftracker.openbittorrent.com%3A80","udp%3A%2F%2Fopen.demonii.com%3A1337","udp%3A%2F%2Ftracker.coppersurfer.tk%3A6969","udp%3A%2F%2Fexodus.desync.com%3A6969"],"infoHash":"c2970504449fe5122f79ecfb2c1207c0c6231b2f","infoHashBuffer":{"type":"Buffer","data":[194,151,5,4,68,159,229,18,47,121,236,251,44,18,7,192,198,35,27,47]},"announce":[],"urlList":[]}}